<svg class="icon" viewBox="0 0 1024 1024" xmlns="http://www.w3.org/2000/svg" width="200" height="200"><path d="M854.62 403.456c-7.741-108.483-84.741-215.49-154.235-279.475a33.695 33.695 0 0 0-44.99-.712 469.233 469.233 0 0 0-61.531 66.171 1026.56 1026.56 0 0 0-93.64-98.596 33.792 33.792 0 0 0-44.954-.732C316.472 209.623 168.96 440.868 168.96 634.02a308.736 308.736 0 0 0 307.59 308.06h.798a301.368 301.368 0 0 0 222.208-97.019 321.464 321.464 0 0 0 85.079-241.792c-.896-12.518-2.52-25.37-4.506-38.282a180.183 180.183 0 0 0 27.223-24.423 184.893 184.893 0 0 0 47.268-137.108zM718.71 607.969a255.258 255.258 0 0 1-67.446 192.036 235.904 235.904 0 0 1-173.9 76.053h-.646A242.565 242.565 0 0 1 235.054 634.02c0-163.697 120.78-360.284 241.72-474.368a977.956 977.956 0 0 1 78.234 86.789c-34.683 58.49-59.96 127.032-54.508 192.235 7.558 90.287 84.829 159.616 176.87 159.606 1.455 0 2.92 0 4.378-.051a175.498 175.498 0 0 0 35.554-4.48c.522 4.777 1.075 9.549 1.408 14.213zm39.746-111.841a108.605 108.605 0 0 1-78.28 36.076c-60.021 1.443-108.968-41.16-113.812-99.052-6.835-81.684 55.992-182.272 110.776-239.406 51.933 54.518 105.984 136.033 111.555 214.4a118.671 118.671 0 0 1-30.239 87.982zm-368.732 3.497-30.157-13.507-30.126-13.542c-3.722 8.259-89.728 203.515 41.718 314.399l42.64-50.448c-93.246-78.658-24.776-235.31-24.075-236.882z" fill="#5288F5"/><path d="m768 399.176-90.414 92.344-8.192-8.392-80.594-82.273 36.797-37.591 25.657 26.204V281.6h52.05v108.472l27.888-28.487z" fill="#F79C42"/></svg>