<?xml version="1.0" standalone="no"?><!DOCTYPE svg PUBLIC "-//W3C//DTD SVG 1.1//EN" "http://www.w3.org/Graphics/SVG/1.1/DTD/svg11.dtd"><svg t="1617933205558" class="icon" viewBox="0 0 1024 1024" version="1.1" xmlns="http://www.w3.org/2000/svg" p-id="2149" xmlns:xlink="http://www.w3.org/1999/xlink" width="200" height="200"><defs><style type="text/css"></style></defs><path d="M854.62016 403.456c-7.74144-108.48256-84.74112-215.49056-154.23488-279.4752a33.69472 33.69472 0 0 0-44.98944-0.71168A469.23264 469.23264 0 0 0 593.86368 189.44 1026.56 1026.56 0 0 0 500.224 90.84416a33.792 33.792 0 0 0-44.9536-0.73216C316.47232 209.62304 168.96 440.86784 168.96 634.01984A308.736 308.736 0 0 0 476.54912 942.08h0.79872a301.36832 301.36832 0 0 0 222.208-97.01888 321.46432 321.46432 0 0 0 85.07904-241.792c-0.896-12.5184-2.51904-25.3696-4.5056-38.28224a180.18304 180.18304 0 0 0 27.22304-24.4224 184.89344 184.89344 0 0 0 47.26784-137.10848z m-135.9104 204.51328a255.2576 255.2576 0 0 1-67.44576 192.03584 235.904 235.904 0 0 1-173.9008 76.05248h-0.64512a242.56512 242.56512 0 0 1-241.664-242.03776c0-163.69664 120.7808-360.28416 241.72032-474.368a977.95584 977.95584 0 0 1 78.2336 86.78912c-34.68288 58.49088-59.96032 127.03232-54.50752 192.23552 7.55712 90.28608 84.82816 159.616 176.8704 159.60576 1.45408 0 2.9184 0 4.3776-0.0512a175.49824 175.49824 0 0 0 35.55328-4.48c0.52224 4.77696 1.0752 9.5488 1.408 14.21312z m39.74656-111.84128a108.60544 108.60544 0 0 1-78.27968 36.07552c-60.02176 1.44384-108.96896-41.15968-113.81248-99.05152-6.8352-81.68448 55.99232-182.272 110.77632-239.40608 51.93216 54.51776 105.984 136.03328 111.55456 214.4a118.67136 118.67136 0 0 1-30.23872 87.98208z m-368.73216 3.49696l-30.1568-13.50656-30.12608-13.5424c-3.72224 8.25856-89.728 203.51488 41.71776 314.39872l42.63936-50.44736c-93.24544-78.65856-24.77568-235.31008-24.07424-236.88192z" fill="#5288F5" p-id="2150"></path><path d="M768 399.17568L677.58592 491.52l-8.192-8.39168L588.8 400.85504l36.79744-37.59104 25.65632 26.20416V281.6h52.04992v108.47232l27.88864-28.48768z" fill="#F79C42" p-id="2151"></path></svg>